<svg width="24" height="24" viewBox="0 0 24 24" fill="none" xmlns="http://www.w3.org/2000/svg">
<path d="M4.9165 0.383789C3.78933 0.383789 2.70833 0.805217 1.9113 1.55536C1.11427 2.30551 0.666504 3.32292 0.666504 4.38379V15.0505C0.666504 16.1113 1.11427 17.1287 1.9113 17.8789C2.70833 18.629 3.78933 19.0505 4.9165 19.0505H6.33317V21.7171C6.33312 21.953 6.39957 22.1847 6.52574 22.3886C6.65191 22.5924 6.83329 22.7611 7.05136 22.8774C7.26943 22.9937 7.51638 23.0535 7.76702 23.0506C8.01765 23.0478 8.263 22.9824 8.478 22.8611L15.2242 19.0505H19.0832C20.2103 19.0505 21.2913 18.629 22.0884 17.8789C22.8854 17.1287 23.3332 16.1113 23.3332 15.0505V4.38379C23.3332 3.32292 22.8854 2.30551 22.0884 1.55536C21.2913 0.805217 20.2103 0.383789 19.0832 0.383789H4.9165Z" fill="#003049"/>
</svg>
