<svg width="32" height="32" viewBox="0 0 32 32" fill="none" xmlns="http://www.w3.org/2000/svg">
<path d="M10.52 18.4H19.52V16H10.52V18.4ZM10.52 14.8H26.32V12.4H10.52V14.8ZM10.52 11.2H26.32V8.8H10.52V11.2ZM7.2 27.2C6.56 27.2 6 26.96 5.52 26.48C5.04 26 4.8 25.44 4.8 24.8V2.4C4.8 1.76 5.04 1.2 5.52 0.72C6 0.24 6.56 0 7.2 0H29.6C30.24 0 30.8 0.24 31.28 0.72C31.76 1.2 32 1.76 32 2.4V24.8C32 25.44 31.76 26 31.28 26.48C30.8 26.96 30.24 27.2 29.6 27.2H7.2ZM7.2 24.8H29.6V2.4H7.2V24.8ZM2.4 32C1.76 32 1.2 31.76 0.72 31.28C0.24 30.8 0 30.24 0 29.6V4.8H2.4V29.6H27.2V32H2.4ZM7.2 2.4V24.8V2.4Z" fill="white"/>
</svg>
