<svg width="93" height="94" viewBox="0 0 93 94" fill="none" xmlns="http://www.w3.org/2000/svg">
<path d="M34.875 68.15L67.425 47L34.875 25.85V68.15ZM46.5 94C40.0675 94 34.0225 92.7655 28.365 90.2964C22.7075 87.8305 17.7863 84.4825 13.6013 80.2525C9.41625 76.0225 6.1039 71.0483 3.6642 65.33C1.2214 59.6117 0 53.5017 0 47C0 40.4983 1.2214 34.3883 3.6642 28.67C6.1039 22.9517 9.41625 17.9775 13.6013 13.7475C17.7863 9.5175 22.7075 6.16797 28.365 3.6989C34.0225 1.23297 40.0675 0 46.5 0C52.9325 0 58.9775 1.23297 64.635 3.6989C70.2925 6.16797 75.2138 9.5175 79.3988 13.7475C83.5838 17.9775 86.8961 22.9517 89.3358 28.67C91.7786 34.3883 93 40.4983 93 47C93 53.5017 91.7786 59.6117 89.3358 65.33C86.8961 71.0483 83.5838 76.0225 79.3988 80.2525C75.2138 84.4825 70.2925 87.8305 64.635 90.2964C58.9775 92.7655 52.9325 94 46.5 94ZM46.5 84.6C56.885 84.6 65.6813 80.9575 72.8887 73.6725C80.0962 66.3875 83.7 57.4967 83.7 47C83.7 36.5033 80.0962 27.6125 72.8887 20.3275C65.6813 13.0425 56.885 9.4 46.5 9.4C36.115 9.4 27.3188 13.0425 20.1112 20.3275C12.9037 27.6125 9.3 36.5033 9.3 47C9.3 57.4967 12.9037 66.3875 20.1112 73.6725C27.3188 80.9575 36.115 84.6 46.5 84.6Z" fill="white"/>
</svg>
