<svg width="18" height="18" viewBox="0 0 18 18" fill="none" xmlns="http://www.w3.org/2000/svg">
<path d="M8.51707 14.0183C7.11219 13.9492 5.92683 13.4378 4.96098 12.4841C3.99512 11.5305 3.51219 10.3833 3.51219 9.04268C3.51219 7.66057 4.02439 6.48577 5.04878 5.51829C6.07317 4.55081 7.31707 4.06707 8.78049 4.06707C10.2 4.06707 11.4146 4.52317 12.4244 5.43537C13.4341 6.34756 13.9756 7.47398 14.0488 8.81463L12.6659 8.4C12.5049 7.51545 12.0659 6.77947 11.3488 6.19207C10.6317 5.60467 9.77561 5.31098 8.78049 5.31098C7.68293 5.31098 6.75 5.67378 5.98171 6.39939C5.21341 7.125 4.82927 8.0061 4.82927 9.04268C4.82927 9.9687 5.14024 10.7738 5.76219 11.4579C6.38415 12.1421 7.16341 12.5602 8.1 12.7122L8.51707 14.0183ZM9.57073 17.2939C9.43902 17.3077 9.30732 17.3181 9.17561 17.325C9.0439 17.3319 8.9122 17.3354 8.78049 17.3354C7.56585 17.3354 6.42439 17.1177 5.3561 16.6823C4.2878 16.247 3.35854 15.6561 2.56829 14.9098C1.77805 14.1634 1.15244 13.2858 0.691463 12.2768C0.230488 11.2679 0 10.1898 0 9.04268C0 7.89553 0.230488 6.81748 0.691463 5.80854C1.15244 4.79959 1.77805 3.92195 2.56829 3.17561C3.35854 2.42927 4.2878 1.83841 5.3561 1.40305C6.42439 0.967683 7.56585 0.75 8.78049 0.75C9.99512 0.75 11.1366 0.967683 12.2049 1.40305C13.2732 1.83841 14.2024 2.42927 14.9927 3.17561C15.7829 3.92195 16.4085 4.79959 16.8695 5.80854C17.3305 6.81748 17.561 7.89553 17.561 9.04268C17.561 9.16707 17.5573 9.29146 17.55 9.41585C17.5427 9.54024 17.5317 9.66463 17.5171 9.78902L16.2439 9.41585V9.04268C16.2439 7.08008 15.5195 5.41463 14.0707 4.04634C12.622 2.67805 10.8585 1.9939 8.78049 1.9939C6.70244 1.9939 4.93902 2.67805 3.49024 4.04634C2.04146 5.41463 1.31707 7.08008 1.31707 9.04268C1.31707 11.0053 2.04146 12.6707 3.49024 14.039C4.93902 15.4073 6.70244 16.0915 8.78049 16.0915H9.17561L9.57073 17.2939ZM16.2659 17.75L12.5122 14.2049L11.4146 17.3354L8.78049 9.04268L17.561 11.5305L14.2463 12.5671L18 16.1122L16.2659 17.75Z" fill="#EF0000"/>
</svg>
