<svg width="27" height="26" viewBox="0 0 27 26" fill="none" xmlns="http://www.w3.org/2000/svg">
<path d="M24.8008 12.9996L26.2268 10.6146C26.3982 10.3277 26.4448 9.9866 26.3564 9.6664C26.268 9.3462 26.0518 9.07309 25.7553 8.90711L23.2883 7.52711V4.77711C23.2883 4.44559 23.1522 4.12765 22.9099 3.89323C22.6677 3.65881 22.3392 3.52711 21.9966 3.52711H19.1562L17.7315 1.14086C17.5594 0.85451 17.2778 0.645246 16.9475 0.558364C16.7836 0.515384 16.6126 0.504301 16.4443 0.525759C16.276 0.547216 16.1138 0.600786 15.9671 0.683364L13.5 2.06336L11.0329 0.682114C10.7363 0.516361 10.3837 0.471443 10.0528 0.55724C9.72192 0.643038 9.4398 0.852523 9.26851 1.13961L7.84251 3.52711H5.00213C4.65956 3.52711 4.33102 3.65881 4.08879 3.89323C3.84655 4.12765 3.71047 4.44559 3.71047 4.77711V7.52586L1.24338 8.90586C1.09618 8.98781 0.967149 9.09709 0.863717 9.22744C0.760286 9.35779 0.684487 9.50663 0.640678 9.66541C0.596868 9.8242 0.58591 9.98979 0.608434 10.1527C0.630958 10.3156 0.686519 10.4726 0.771925 10.6146L2.19793 12.9996L0.771925 15.3846C0.601411 15.6718 0.555147 16.0126 0.643222 16.3327C0.731296 16.6528 0.946564 16.9262 1.24209 17.0934L3.70918 18.4734V21.2221C3.70918 21.5536 3.84526 21.8716 4.0875 22.106C4.32973 22.3404 4.65827 22.4721 5.00084 22.4721H7.84251L9.26851 24.8596C9.38286 25.0488 9.54613 25.2059 9.74226 25.3155C9.93839 25.4251 10.1606 25.4834 10.3871 25.4846C10.6118 25.4846 10.8353 25.4271 11.0342 25.3159L13.4987 23.9359L15.9658 25.3159C16.2624 25.4814 16.6147 25.5263 16.9455 25.4408C17.2763 25.3552 17.5585 25.1462 17.7302 24.8596L19.1549 22.4721H21.9953C22.3379 22.4721 22.6664 22.3404 22.9086 22.106C23.1509 21.8716 23.287 21.5536 23.287 21.2221V18.4734L25.754 17.0934C25.901 17.0112 26.0298 16.9018 26.133 16.7714C26.2363 16.641 26.3119 16.4922 26.3557 16.3335C26.3995 16.1748 26.4105 16.0094 26.3882 15.8465C26.3659 15.6837 26.3106 15.5267 26.2255 15.3846L24.8008 12.9996ZM10.2695 6.73711C10.7836 6.73728 11.2765 6.93505 11.6398 7.28691C12.0032 7.63878 12.2072 8.11592 12.207 8.61336C12.2069 9.11081 12.0025 9.58782 11.6389 9.93945C11.2753 10.2911 10.7823 10.4885 10.2683 10.4884C9.75423 10.4882 9.26132 10.2904 8.89797 9.93856C8.53462 9.5867 8.33059 9.10956 8.33076 8.61211C8.33093 8.11467 8.53529 7.63766 8.89888 7.28603C9.26248 6.9344 9.75552 6.73695 10.2695 6.73711ZM10.657 18.7371L8.59038 17.2384L16.3404 7.23836L18.407 8.73711L10.657 18.7371ZM16.7279 19.2371C16.4734 19.237 16.2214 19.1884 15.9862 19.0941C15.7511 18.9998 15.5375 18.8615 15.3576 18.6873C15.1777 18.5131 15.035 18.3063 14.9377 18.0787C14.8403 17.8511 14.7903 17.6072 14.7904 17.3609C14.7905 17.1146 14.8407 16.8707 14.9382 16.6431C15.0356 16.4156 15.1785 16.2089 15.3585 16.0348C15.5385 15.8607 15.7522 15.7226 15.9874 15.6284C16.2226 15.5342 16.4747 15.4858 16.7292 15.4859C17.2432 15.486 17.7361 15.6838 18.0995 16.0357C18.4628 16.3875 18.6668 16.8647 18.6667 17.3621C18.6665 17.8596 18.4621 18.3366 18.0985 18.6882C17.735 19.0398 17.2419 19.2373 16.7279 19.2371Z" fill="#D62828"/>
</svg>
