<svg width="23" height="28" viewBox="0 0 23 28" fill="none" xmlns="http://www.w3.org/2000/svg">
<path d="M22.4687 22.4372C22.4687 23.6804 21.9913 24.8727 21.1416 25.7518C20.2918 26.6309 19.1392 27.1247 17.9375 27.1247C16.7357 27.1247 15.5832 26.6309 14.7334 25.7518C13.8836 24.8727 13.4062 23.6804 13.4062 22.4372C13.4081 21.8563 13.5117 21.2806 13.7121 20.738L8.48982 17.2692C7.86109 17.9375 7.054 18.3965 6.17174 18.5877C5.28948 18.7788 4.37215 18.6934 3.53705 18.3424C2.70195 17.9914 1.98704 17.3907 1.48372 16.6171C0.980396 15.8435 0.711548 14.9322 0.711548 13.9997C0.711548 13.0672 0.980396 12.1559 1.48372 11.3823C1.98704 10.6088 2.70195 10.0081 3.53705 9.65703C4.37215 9.306 5.28948 9.22061 6.17174 9.41178C7.054 9.60294 7.86109 10.062 8.48982 10.7302L13.7121 7.26144C13.5117 6.71881 13.4081 6.14309 13.4062 5.56222C13.4034 4.47203 13.7672 3.41476 14.4351 2.57149C15.103 1.72823 16.0336 1.15143 17.0674 0.939901C18.1012 0.72837 19.174 0.895265 20.1019 1.412C21.0299 1.92874 21.7553 2.76316 22.1539 3.77236C22.5525 4.78155 22.5995 5.90272 22.2869 6.94384C21.9743 7.98495 21.3214 8.88124 20.4402 9.47917C19.559 10.0771 18.5043 10.3395 17.4566 10.2214C16.409 10.1033 15.4336 9.61201 14.6976 8.83175L9.47537 12.3005C9.88302 13.3941 9.88302 14.6054 9.47537 15.6989L14.6976 19.1677C15.3268 18.5021 16.1333 18.0453 17.0143 17.8556C17.8953 17.666 18.811 17.752 19.6446 18.1027C20.4782 18.4534 21.192 19.053 21.6949 19.8249C22.1979 20.5969 22.4673 21.5063 22.4687 22.4372Z" fill="#003049"/>
</svg>
