<svg width="16" height="14" viewBox="0 0 16 14" fill="none" xmlns="http://www.w3.org/2000/svg">
<path d="M9.74038 5.66667H13.2686C14.3697 5.66667 15.0858 6.70975 14.5934 7.59629L12.0013 12.263C11.7504 12.7147 11.2375 13 10.6765 13H7.70092C7.57981 13 7.45916 12.9866 7.34167 12.9602L4.55616 12.3333M9.74038 5.66667V2.33333C9.74038 1.59695 9.07723 1 8.25918 1H8.18847C7.8185 1 7.51857 1.26998 7.51857 1.60302C7.51857 2.07922 7.36199 2.54477 7.06854 2.94099L4.55616 6.33333V12.3333M9.74038 5.66667H8.25918M4.55616 12.3333H3.07496C2.25691 12.3333 1.59375 11.7364 1.59375 11V7C1.59375 6.26362 2.25691 5.66667 3.07496 5.66667H4.92646" stroke="#003049" stroke-width="1.5" stroke-linecap="round" stroke-linejoin="round"/>
</svg>
